<svg width="28" height="28" viewBox="0 0 28 28" fill="none" xmlns="http://www.w3.org/2000/svg">
<path d="M27.6664 26.1345L20.4896 18.9398C22.386 16.6487 23.3268 13.7157 23.1166 10.7497C22.9067 7.78355 21.5617 5.01241 19.3615 3.0118C17.161 1.01058 14.274 -0.0667952 11.3002 0.00320979C8.32643 0.0732148 5.49322 1.28537 3.38971 3.38789C1.28619 5.49042 0.0733276 8.32179 0.00321737 11.2942C-0.0668929 14.2666 1.01112 17.1521 3.01341 19.3512C5.01542 21.5503 7.78804 22.8945 10.7554 23.1043C13.7229 23.3143 16.6574 22.3741 18.9499 20.4787L26.1484 27.6836V27.6838C26.3491 27.8862 26.6227 28 26.9077 28C27.193 28 27.4663 27.8862 27.6672 27.6838C27.8798 27.482 28 27.2019 28 26.9088C28 26.6157 27.8798 26.3357 27.6672 26.1338L27.6664 26.1345ZM5.0341 18.2235C3.28658 16.4748 2.30551 14.1038 2.3066 11.6321C2.30766 9.16069 3.29086 6.79051 5.03995 5.04317C6.78876 3.29609 9.16069 2.31439 11.6335 2.31439C14.1065 2.31439 16.4782 3.29603 18.2273 5.04317C19.9762 6.79051 20.9594 9.16069 20.9604 11.6321C20.9615 14.1038 19.9804 16.4748 18.2329 18.2235C16.4862 19.9796 14.1111 20.967 11.6335 20.967C9.15594 20.967 6.78081 19.9796 5.0341 18.2235Z" fill="#96351E"/>
</svg>
