<svg width="39" height="38" viewBox="0 0 39 38" fill="none" xmlns="http://www.w3.org/2000/svg">
<g filter="url(#filter0_d_75_64)">
<path fill-rule="evenodd" clip-rule="evenodd" d="M31.5131 6.23336H14.4983L14.0148 3.21416C13.8214 1.90582 13.0481 1 11.6945 1H6.95758C4.34747 1 4.34747 5.83083 6.95758 5.83083H9.76112L11.4045 17.5053C11.6946 19.7195 13.3379 21.4303 15.4648 21.4303H27.9358C30.0626 21.4303 31.5128 19.7195 31.9961 17.7065L33.8329 9.55429C34.3164 7.84343 33.4467 6.13258 31.5131 6.23336ZM27.7428 22.1346C26.0026 22.1346 24.5527 23.5435 24.5527 25.4557C24.5527 27.2674 26.0028 28.7768 27.7428 28.7768C29.4831 28.7768 30.933 27.2672 30.933 25.4557C30.933 23.5435 29.4829 22.1346 27.7428 22.1346ZM15.1754 22.1346C13.3385 22.1346 11.9852 23.5435 11.9852 25.4557C11.9852 27.2674 13.3385 28.7768 15.1754 28.7768C16.9156 28.7768 18.2689 27.2672 18.2689 25.4557C18.2689 23.5435 16.9156 22.1346 15.1754 22.1346ZM15.1754 23.6443C14.2086 23.6443 13.4352 24.4495 13.4352 25.4559C13.4352 26.3617 14.2086 27.1668 15.1754 27.1668C16.0455 27.1668 16.8188 26.3615 16.8188 25.4559C16.8188 24.4495 16.0453 23.6443 15.1754 23.6443ZM27.7428 23.6443C26.8727 23.6443 26.0995 24.4495 26.0995 25.4559C26.0995 26.3617 26.8729 27.1668 27.7428 27.1668C28.7096 27.1668 29.3862 26.3615 29.3862 25.4559C29.3862 24.4495 28.7096 23.6443 27.7428 23.6443ZM31.61 7.74305H13.2418L12.5651 3.5161C12.4685 2.71086 12.1785 2.5097 11.695 2.5097H6.95806C6.28138 2.5097 6.28138 4.32134 6.95806 4.32134H10.245C10.9217 4.22078 11.0185 4.62328 11.1151 5.22716L12.8553 17.3041C13.0488 18.8138 14.1121 19.9208 15.4655 19.9208H27.9365C29.2898 19.9208 30.2567 18.8138 30.5466 17.3041L32.48 9.25235C32.6734 8.34653 32.4801 7.64247 31.61 7.74305Z" fill="#96351E"/>
<path fill-rule="evenodd" clip-rule="evenodd" d="M31.5131 6.23336H14.4983L14.0148 3.21416C13.8214 1.90582 13.0481 1 11.6945 1H6.95758C4.34747 1 4.34747 5.83083 6.95758 5.83083H9.76112L11.4045 17.5053C11.6946 19.7195 13.3379 21.4303 15.4648 21.4303H27.9358C30.0626 21.4303 31.5128 19.7195 31.9961 17.7065L33.8329 9.55429C34.3164 7.84343 33.4467 6.13258 31.5131 6.23336ZM27.7428 22.1346C26.0026 22.1346 24.5527 23.5435 24.5527 25.4557C24.5527 27.2674 26.0028 28.7768 27.7428 28.7768C29.4831 28.7768 30.933 27.2672 30.933 25.4557C30.933 23.5435 29.4829 22.1346 27.7428 22.1346ZM15.1754 22.1346C13.3385 22.1346 11.9852 23.5435 11.9852 25.4557C11.9852 27.2674 13.3385 28.7768 15.1754 28.7768C16.9156 28.7768 18.2689 27.2672 18.2689 25.4557C18.2689 23.5435 16.9156 22.1346 15.1754 22.1346ZM15.1754 23.6443C14.2086 23.6443 13.4352 24.4495 13.4352 25.4559C13.4352 26.3617 14.2086 27.1668 15.1754 27.1668C16.0455 27.1668 16.8188 26.3615 16.8188 25.4559C16.8188 24.4495 16.0453 23.6443 15.1754 23.6443ZM27.7428 23.6443C26.8727 23.6443 26.0995 24.4495 26.0995 25.4559C26.0995 26.3617 26.8729 27.1668 27.7428 27.1668C28.7096 27.1668 29.3862 26.3615 29.3862 25.4559C29.3862 24.4495 28.7096 23.6443 27.7428 23.6443ZM31.61 7.74305H13.2418L12.5651 3.5161C12.4685 2.71086 12.1785 2.5097 11.695 2.5097H6.95806C6.28138 2.5097 6.28138 4.32134 6.95806 4.32134H10.245C10.9217 4.22078 11.0185 4.62328 11.1151 5.22716L12.8553 17.3041C13.0488 18.8138 14.1121 19.9208 15.4655 19.9208H27.9365C29.2898 19.9208 30.2567 18.8138 30.5466 17.3041L32.48 9.25235C32.6734 8.34653 32.4801 7.64247 31.61 7.74305Z" stroke="#96351E" stroke-width="0.5"/>
</g>
<defs>
<filter id="filter0_d_75_64" x="0.75" y="0.75" width="37.4641" height="36.2769" filterUnits="userSpaceOnUse" color-interpolation-filters="sRGB">
<feFlood flood-opacity="0" result="BackgroundImageFix"/>
<feColorMatrix in="SourceAlpha" type="matrix" values="0 0 0 0 0 0 0 0 0 0 0 0 0 0 0 0 0 0 127 0" result="hardAlpha"/>
<feOffset dy="4"/>
<feGaussianBlur stdDeviation="2"/>
<feComposite in2="hardAlpha" operator="out"/>
<feColorMatrix type="matrix" values="0 0 0 0 0 0 0 0 0 0 0 0 0 0 0 0 0 0 0.25 0"/>
<feBlend mode="normal" in2="BackgroundImageFix" result="effect1_dropShadow_75_64"/>
<feBlend mode="normal" in="SourceGraphic" in2="effect1_dropShadow_75_64" result="shape"/>
</filter>
</defs>
</svg>
