<svg width="30" height="24" viewBox="0 0 30 24" fill="none" xmlns="http://www.w3.org/2000/svg">
<path d="M26.7417 24H3.25769C1.46154 24 0 22.509 0 20.6766V3.32386C0 1.49096 1.46147 0 3.25769 0H26.7423C28.5385 0 30 1.49122 30 3.32386V20.6766C29.9998 22.5095 28.5385 24 26.7419 24H26.7417ZM3.25769 1.98189C2.53312 1.98189 1.94308 2.58381 1.94308 3.3238V20.6765C1.94308 21.4157 2.53285 22.0177 3.25769 22.0177L26.7417 22.0179C27.4667 22.0179 28.057 21.4162 28.057 20.6768V3.3234C28.057 2.58369 27.4673 1.98149 26.7424 1.98149H3.25782L3.25769 1.98189ZM24.4278 19.1536C24.1898 19.1536 23.9507 19.0645 23.7632 18.8849L17.9039 13.2748L15.8725 15.9406C15.5007 16.3107 14.9082 16.3166 14.5295 15.9539L12.122 13.0291L6.26047 18.8616C5.87632 19.2438 5.26145 19.2358 4.88685 18.8442C4.51226 18.452 4.51954 17.8248 4.90393 17.4429L10.7039 11.6716L4.9074 6.12183C4.51623 5.74711 4.4964 5.12011 4.86371 4.72104C5.23103 4.32198 5.84493 4.30175 6.23681 4.67647L15.1812 13.8597L23.7394 4.69942C24.123 4.31727 24.7382 4.3247 25.113 4.71684C25.4876 5.10899 25.4803 5.73627 25.0959 6.11816L19.2964 11.8892L25.0932 17.4397C25.4844 17.8144 25.5042 18.4414 25.1369 18.8405C24.9454 19.0487 24.687 19.1535 24.4279 19.1535L24.4278 19.1536Z" fill="black"/>
</svg>
