<svg width="32" height="32" viewBox="0 0 32 32" fill="none" xmlns="http://www.w3.org/2000/svg">
<path d="M23.3332 8.66663H23.3465M9.33317 2.66663H22.6665C26.3484 2.66663 29.3332 5.65139 29.3332 9.33329V22.6666C29.3332 26.3485 26.3484 29.3333 22.6665 29.3333H9.33317C5.65127 29.3333 2.6665 26.3485 2.6665 22.6666V9.33329C2.6665 5.65139 5.65127 2.66663 9.33317 2.66663ZM21.3332 15.16C21.4977 16.2696 21.3082 17.4029 20.7915 18.3986C20.2749 19.3944 19.4574 20.2018 18.4553 20.7062C17.4533 21.2105 16.3178 21.3861 15.2102 21.2079C14.1027 21.0297 13.0795 20.5067 12.2863 19.7135C11.4931 18.9203 10.9701 17.8971 10.7919 16.7896C10.6137 15.682 10.7893 14.5465 11.2936 13.5445C11.798 12.5424 12.6054 11.7249 13.6012 11.2083C14.5969 10.6916 15.7302 10.5021 16.8398 10.6666C17.9717 10.8345 19.0196 11.3619 19.8288 12.171C20.6379 12.9802 21.1653 14.0281 21.3332 15.16Z" stroke="#1E1E1E" stroke-width="2" stroke-linecap="round" stroke-linejoin="round"/>
</svg>
