<svg width="19" height="19" viewBox="0 0 19 19" fill="none" xmlns="http://www.w3.org/2000/svg">
<path d="M18.7071 9.03168L0.782571 0.0576522C0.518705 -0.0744399 0.194961 0.0281887 0.0602046 0.286482C-0.0098575 0.420213 -0.0153753 0.569167 0.0321125 0.700442L3.23124 9.49932L0.0309139 18.2978C-0.068244 18.5721 0.0790713 18.873 0.359324 18.9697C0.516173 19.024 0.681544 19.0029 0.813976 18.9253L18.7073 9.96723C18.9711 9.8353 19.0761 9.5184 18.941 9.26011C18.8875 9.15764 18.8044 9.07989 18.7073 9.03128L18.7071 9.03168ZM4.18187 10.0276H6.32688C6.62469 10.0276 6.86616 9.7912 6.86616 9.49966C6.86616 9.20812 6.6247 8.97176 6.32688 8.97176H4.18187L1.49959 1.5976L16.2294 8.97176H10.1487C9.85091 8.97176 9.60944 9.20812 9.60944 9.49966C9.60944 9.7912 9.8509 10.0276 10.1487 10.0276H16.2294L1.49959 17.4017L4.18187 10.0276ZM7.95924 8.9718C7.66143 8.9718 7.41995 9.20817 7.41995 9.4997C7.41995 9.79124 7.66141 10.0276 7.95924 10.0276H8.51658C8.81456 10.0276 9.05603 9.79124 9.05603 9.4997C9.05603 9.20817 8.81458 8.9718 8.51658 8.9718H7.95924Z" fill="#131313"/>
</svg>
